<?xml version="1.0" encoding="utf-8"?>
<!-- Generator: Adobe Illustrator 25.4.1, SVG Export Plug-In . SVG Version: 6.00 Build 0)  -->
<svg version="1.1" id="Layer_1" xmlns="http://www.w3.org/2000/svg" xmlns:xlink="http://www.w3.org/1999/xlink" x="0px" y="0px"
	 viewBox="0 0 411 230" style="enable-background:new 0 0 411 230;" xml:space="preserve">
<style type="text/css">
	.st0{fill:#ADDEC9;}
	.st1{fill:#FFFFFF;}
	.st2{fill:#556268;}
	.st3{fill:#394145;}
	.st4{fill:#142328;}
	.st5{fill:#231F20;}
	.st6{fill:#C14F29;}
	.st7{fill:#8E3928;}
	.st8{fill:#A1BDCA;}
	.st9{opacity:0.57;fill:#FA9269;enable-background:new    ;}
	.st10{opacity:0.81;fill:#FA9269;enable-background:new    ;}
	.st11{fill:#662A16;}
	.st12{fill:#06C167;}
	.st13{fill:#0F462D;}
	.st14{fill:#66D19E;}
	.st15{fill:#156A41;}
	.st16{fill:#05A357;}
	.st17{fill:#FFC043;}
	.st18{fill:#FF6937;}
	.st19{fill:#066336;}
	.st20{fill:#F9A723;}
	.st21{fill:#FFC552;}
	.st22{fill:#B18977;}
</style>
<path class="st0" d="M0,0h457.9v230H0V0z"/>
<path class="st1" d="M295.1,0c-12.9,15-30.5,26.2-49.3,32.5c-25.9,8.7-54.2,8.7-80.9,3.2c-10-2.1-21-5.6-31.3-2.9
	c-11.1,2.8-16.9,14-13.3,25c4.7,14.5,24.8,23.2,36.8,30.6c4.1,2.5,8.3,5.2,11.4,8.9c2.6,3,4.3,6.7,5.5,10.5c3.8,12.9,0.2,27.3-8,38
	s-20.4,17.7-33.4,21.2l-49.1,5.1c-2.4-0.5-3.1-3.5-3-5.9c0.2-8.2,3.7-15.9,7.3-23.3c3.6-7.4,7.4-14.8,8.4-23
	c2.1-16.7-11.2-28.5-27.5-24.4C56,98.7,51.4,110,51.5,122c0.1,12.9-5.5,28.9-14.2,38.5c-7.9,8.8-19.3,12.9-29.9,17.3
	c-2.4,1-4.9,2-7.4,2.8V0H295.1z"/>
<path class="st0" d="M163.7,108.9c-4.1-1.1-8.3-0.3-11.4,2.2l-0.1,0.1c-3.1,2.5-4.7,6.3-4.5,10.6c0,0.3,0.2,0.6,0.4,0.9
	c0.2,0.2,0.6,0.3,0.9,0.3c0.6-0.1,1.1-0.6,1.1-1.2c-0.2-3.5,1.2-6.6,3.7-8.7c2.5-2,5.9-2.7,9.3-1.8c0.4,0.1,0.8,0,1-0.2
	c0.2-0.1,0.3-0.3,0.4-0.6c0.1-0.3,0.1-0.6-0.1-0.9C164.3,109.2,164.1,109,163.7,108.9L163.7,108.9z"/>
<path class="st2" d="M218.3,154l11.7-2.1l2.3,13l-11.7,2.1L218.3,154z"/>
<path class="st3" d="M127.7,199.1c-10,1-20.1,1-28.9-3c-8.6-3.8-14.7-11.6-16.3-20.9l-0.6-3.3l17.3-3.3l1.5,6.7
	c1.6,9.2,7.7,17.1,16.3,20.9C120.4,197.6,124,198.6,127.7,199.1L127.7,199.1z"/>
<path class="st4" d="M215.6,175.5c-11.8,11.4-30.7,13.4-46,17.3c-7.1,1.8-14.3,3.1-21.6,3.8c-6.4,0.6-13.3,1.7-20.2,2.4
	c-3.7-0.5-7.3-1.4-10.7-3c-8.6-3.8-14.7-11.6-16.3-20.9l-1.5-6.7l53.1-10.3l70.8-11.3l0.6,3.3C225.3,159.6,222.3,169,215.6,175.5z"
	/>
<path class="st5" d="M348.7,128l0.8-18.5l31.7,25.9c0,0-13.5,37.3-14,38.4c-0.2,0.5-4-4.8-8.2-10.7
	C351.8,152.8,348.2,140.5,348.7,128z"/>
<path class="st6" d="M368.5,145.9l-41.4,0.9c-1.1,0-2.1,0.5-2.9,1.2l-2.9,2.7c-3.4,3.2-6.2,5.8-10.5,7.8c-0.5,0.2-1,0.5-1.5,0.7
	c-5.9,2.4-12.1,0.8-18.4-0.5c-2.8-0.6-3-4.5-5.6-5.3c1-3-0.3-1.1,0.7-4.1l1.5-4.9l3.9-12.3l19.7-19.6l4.6-2.2c1.6-0.8,3.4-1,5.1-0.6
	l8.1,1.6l25.2-0.6L368.5,145.9L368.5,145.9z"/>
<path class="st6" d="M287.6,144.2l-1.5,4.9c-1,3-5.9,5.1-6.9,8.2c3.8-3.5,7,3.7,9.7,2.9c3.4-1.1,6.3,2.1,8.8,2l6.5-22.9L287.6,144.2
	L287.6,144.2z"/>
<path class="st7" d="M333.1,139.2l-0.7-7c-0.2-1.6-1.7-2.8-3.3-2.6l-15.4,2.2l-1,4.8l-8.6,2.6l-5.9,22.1c3.8-0.1,0.6-1.4,4.2-2.8
	c0.4-0.2,1-1.1,1.3-1.4c1-1.1,2-2.1,3-3.1c1.9-2,3.4-4.4,5.3-6.3c2.9-2.9,6.3-2.8,10-3.1l7.2-0.6C331.7,144,333.5,141.7,333.1,139.2
	L333.1,139.2z"/>
<path class="st4" d="M228.9,153.5l1.8,10.1c0.4,2.2,2.9,3.2,4.7,1.8l2.1-1.6c1.6-1.2,3.4-2.3,5.2-3.2l27.3-12.9
	c6.6-3.1,13.7-4.9,21-5.2l34.6-1.4c2.5-0.1,4.3-2.3,3.8-4.8l-1.1-6.2c-0.4-2-2.2-3.5-4.3-3.3l-43.7,3c-2.5,0.2-5,0.8-7.3,1.8
	l-42.4,18.7C229.4,150.8,228.7,152.1,228.9,153.5L228.9,153.5z"/>
<path class="st1" d="M411,96.7V166l-43.8,7.7l-1-21.6c-0.3-5.6-1.6-11-4-16.1l-12.8-26.6c8.9-0.6,14.8-1.1,23.7-2.1
	C377.1,106.9,394.8,101.6,411,96.7L411,96.7z"/>
<ellipse transform="matrix(0.9848 -0.1737 0.1737 0.9848 -25.181 28.8599)" class="st8" cx="152.3" cy="158.3" rx="71.7" ry="13.9"/>
<path class="st4" d="M216,149.2c-7.7,5-28.9,13.2-61.9,19c-12.4,2.2-23.4,3.5-32.8,4.2c-15.4,1.1-26.3,0.5-31.9-0.9
	c-1.9-0.4-2.4-3-0.7-4.1c7.7-5,28.9-13.2,61.9-19c4.9-0.9,9.6-1.6,14.1-2.2c25.4-3.5,42.9-2.9,50.6-1.1
	C217.2,145.5,217.6,148.1,216,149.2L216,149.2z"/>
<path class="st6" d="M324.8,126.7c-4.9,0-9.2-0.5-13.6,1.9c-3.9,2.1-7.4,5-11.6,6.3c-0.6,0.2-1.3,0.4-2,0.5
	c-0.8,0.1-1.6,0.2-2.4,0.2c-2.8,0.1-5.5-0.3-8.2-0.8c-0.8-0.1-1.7-0.3-2.5-0.4l-5.5-0.7l-3.4,10.5l-0.7,2.1c-0.3,1-0.9,1.8-1.6,2.4
	c-0.7,0.7-1.7,1.1-2.6,1.3c-1.1,0.2-2.1,0-3-0.3c-2.1-0.9-3.6-3-3.4-5.5l0.8-10.5c0.1-1.7,0.8-3.3,2-4.6L278,117
	c2.7-3,6.6-4.7,10.6-4.7h22.5L324.8,126.7L324.8,126.7z"/>
<path class="st9" d="M270.9,139.1l-3.7-0.3c-0.9-0.1-1.8,0.6-1.8,1.6l-0.3,3.2c-0.1,1.7,1.1,3.1,2.8,3.3l1.1,0.1
	c1.7,0.1,3.1-1.1,3.3-2.8l0.3-3.2C272.5,140,271.8,139.1,270.9,139.1L270.9,139.1z"/>
<path class="st6" d="M268.6,143.6c-2.6-2-6.3-1.6-8.3,1l-4.8,6.3c-2,2.6-1.6,6.3,1,8.3c2.6,2,6.3,1.6,8.3-1l4.8-6.3
	C271.6,149.3,271.2,145.6,268.6,143.6L268.6,143.6z"/>
<path class="st10" d="M260.9,150.6l2.9,2c0.7,0.5,1.8,0.3,2.3-0.4l1.7-2.5c0.9-1.3,0.5-3.1-0.8-4l-0.9-0.6c-1.3-0.9-3.1-0.5-4,0.8
	l-1.7,2.5C260,149.1,260.2,150.1,260.9,150.6z"/>
<circle class="st2" cx="237" cy="155.5" r="3.1"/>
<circle class="st5" cx="376.1" cy="160.8" r="3.3"/>
<path class="st7" d="M286.8,134.8c-0.8-0.1-1.7-0.3-2.5-0.4l-5.5-0.7l-3.4,10.5l-3.2-0.1l3.1-10.7c0.7-2.5,3.1-4.3,5.7-4.3h0.5
	C284.3,129.4,286.6,131.3,286.8,134.8z"/>
<path class="st11" d="M284.4,143.8l2-6.1l-1.7,6.1H284.4z"/>
<path class="st11" d="M284.4,143.8l2-6.1l-1.7,6.1H284.4z"/>
<path class="st7" d="M299.6,134.9c-0.6,0.2-1.3,0.4-2,0.5c-0.8,0.1-1.6,0.2-2.4,0.2c-2.6-0.2-5.2-0.7-7.7-0.9l0.5-1.5
	c0.8-2.4,3.1-4.1,5.6-4.1h0.7C298.4,129.7,299.1,132.5,299.6,134.9z"/>
<path class="st6" d="M278.9,158.5c0.4-0.6,0.6-1.2,1-1.7c0.1-0.2,0.4-0.6,0.6-0.6c0.5-0.1,0.6,0.6,0.7,0.9c0.2,0.5,0.4,0.9,0.7,1.3
	c0.7,0.9,1.6,1.6,2.7,2c1.4,0.5,2.9,0.5,4.3-0.1c0.7-0.3,1.3-0.7,1.9-1.2c0.3-0.3,0.5-0.7,0.9-1c-0.2,0.2-0.5,0.4-0.7,0.6
	c0.4-0.3,0.9-0.9,1.3-0.6c0.4,0.3,0.4,0.9,0.6,1.3c0.6,1.2,1.7,2.1,2.9,2.6c2.8,1,5.9-0.4,6.9-3.2l5.6-15.6c1-2.8-0.4-5.9-3.2-6.9
	c-2.6-0.9-5.4,0.2-6.6,2.5c0.4-2.7-1.1-5.5-3.8-6.5c-3.1-1.1-6.5,0.5-7.6,3.5l-1.3,3.5c0.4-2.7-1.1-5.5-3.8-6.5
	c-3.1-1.1-6.5,0.5-7.6,3.5l-6.1,17c-1.1,3.1,0.5,6.5,3.5,7.6c1.7,0.6,3.6,0.4,5.1-0.5C277.8,159.9,278.4,159.2,278.9,158.5
	L278.9,158.5z"/>
<path class="st10" d="M289.8,141.4l3.4,1c0.9,0.2,1.8-0.3,2-1.1l0.8-2.9c0.4-1.5-0.4-3.1-2-3.6l-1-0.3c-1.5-0.4-3.1,0.4-3.6,2
	l-0.8,2.9C288.5,140.2,289,141.1,289.8,141.4L289.8,141.4z M300.7,144.5l3.1,0.9c0.8,0.2,1.6-0.2,1.8-1l0.8-2.6
	c0.4-1.4-0.4-2.9-1.8-3.3l-0.9-0.3c-1.4-0.4-2.9,0.4-3.3,1.8l-0.8,2.6C299.5,143.5,299.9,144.3,300.7,144.5L300.7,144.5z
	 M277.2,141.9l3.4,1c0.9,0.2,1.8-0.3,2-1.1l0.8-2.9c0.4-1.5-0.4-3.1-2-3.6l-1-0.3c-1.5-0.4-3.1,0.4-3.6,2l-0.8,2.9
	C275.8,140.8,276.3,141.7,277.2,141.9L277.2,141.9z"/>
<path class="st2" d="M164.7,146.2c-17.4,18-31.6,22.9-43.4,26.2c-15.4,1.1-26.3,0.5-31.9-0.9c-1.9-0.4-2.4-3-0.7-4.1
	c7.7-5,28.9-13.2,61.9-19C155.5,147.6,160.2,146.8,164.7,146.2L164.7,146.2z"/>
<path class="st12" d="M150,130.2l1.2,1.1c0.2,0.1,0,0.4-0.2,0.3l-1.6-0.4c-1.2-0.3-2.5-0.4-3.7-0.3c-3.3,0.4-6.3-1.7-7-4.8l-0.4-1.7
	l1.6-0.5c3.1-1,6.5,0.4,7.9,3.3C148.3,128.4,149,129.4,150,130.2L150,130.2z"/>
<path class="st13" d="M138.3,124.2l5.9,3.6l-6.2-3.1c-0.1-0.1-0.2-0.2-0.1-0.4C138,124.2,138.2,124.2,138.3,124.2L138.3,124.2z"/>
<path class="st12" d="M176.2,156.8l1.5,0.7c0.2,0.1,0.1,0.4-0.1,0.4H176c-1.2,0-2.5,0.3-3.6,0.8c-3,1.3-6.5,0.2-8.1-2.6l-0.9-1.5
	l1.4-1c2.7-1.9,6.3-1.5,8.5,0.9C174,155.5,175,156.2,176.2,156.8L176.2,156.8z"/>
<path class="st13" d="M163.3,154.3l6.7,1.7l-6.8-1.2c-0.2,0-0.3-0.2-0.2-0.3C163,154.4,163.1,154.3,163.3,154.3z"/>
<path class="st12" d="M145.8,139.5l1.5-2.1c0.2-0.3,0.6-0.1,0.6,0.2l-0.3,2.5c-0.3,1.9-0.1,3.9,0.4,5.8c1.3,5-1.3,10.2-6.1,12.1
	l-2.5,1l-1.2-2.5c-2.3-4.7-0.7-10.3,3.6-13.1C143.2,142.5,144.6,141.1,145.8,139.5z"/>
<path class="st13" d="M138.8,159l4.4-10.1l-3.5,10.4c-0.1,0.2-0.3,0.4-0.6,0.3C138.8,159.5,138.7,159.2,138.8,159L138.8,159z"/>
<path class="st14" d="M154.4,74.2h3.7v-1.7h-3.7V74.2z"/>
<path class="st14" d="M154.4,72.8h3.7V71h-3.7V72.8z M161.6,64.7l4.3-3.1l-0.5-0.6l-4.3,3.1L161.6,64.7z"/>
<path class="st14" d="M161.2,64.2l4.3-3.1l-0.5-0.6l-4.3,3.1L161.2,64.2z"/>
<path class="st15" d="M164.7,125.5l2.4,2.8l1.3-1.1l-2.4-2.8L164.7,125.5z"/>
<path class="st16" d="M165.8,124.5l2.4,2.8l1.3-1.1l-2.4-2.8L165.8,124.5z"/>
<path class="st0" d="M127.7,138.4l2.4,2.8l1.3-1.1l-2.4-2.8L127.7,138.4z"/>
<path class="st0" d="M128.8,137.5l2.4,2.8l1.3-1.1l-2.4-2.8L128.8,137.5z"/>
<path class="st15" d="M104.7,152.3l-1.7,3.3l1.5,0.8l1.7-3.3L104.7,152.3z"/>
<path class="st16" d="M106,153l-1.7,3.3l1.5,0.8l1.7-3.3L106,153z"/>
<path class="st17" d="M106.7,72.6l-0.2-0.6c-0.3-0.8,0.2-1.7,1.1-1.8l0.6-0.1l0.4-0.5c0.5-0.7,1.6-0.7,2.1,0l0.4,0.5l0.6,0.1
	c0.8,0.1,1.4,1,1.1,1.8l-0.2,0.6l0.2,0.6c0.3,0.8-0.2,1.7-1.1,1.8l-0.6,0.1l-0.4,0.5c-0.5,0.7-1.6,0.7-2.1,0l-0.4-0.5l-0.6-0.1
	c-0.8-0.1-1.4-1-1.1-1.8L106.7,72.6z"/>
<path class="st18" d="M138.6,106.9l-0.2-0.6c-0.3-0.8,0.2-1.7,1.1-1.8l0.6-0.1l0.4-0.5c0.5-0.7,1.6-0.7,2.1,0l0.4,0.5l0.6,0.1
	c0.8,0.1,1.4,1,1.1,1.8l-0.2,0.6l0.2,0.6c0.3,0.8-0.2,1.7-1.1,1.8l-0.6,0.1l-0.4,0.5c-0.5,0.7-1.6,0.7-2.1,0l-0.4-0.5l-0.6-0.1
	c-0.8-0.1-1.4-1-1.1-1.8L138.6,106.9z M115.9,157.5l-0.2-0.6c-0.3-0.8,0.2-1.7,1.1-1.8l0.6-0.1l0.4-0.5c0.5-0.7,1.6-0.7,2.1,0
	l0.4,0.5l0.6,0.1c0.8,0.1,1.4,1,1.1,1.8l-0.2,0.6l0.2,0.6c0.3,0.8-0.2,1.7-1.1,1.8l-0.6,0.1l-0.4,0.5c-0.5,0.7-1.6,0.7-2.1,0
	l-0.4-0.5l-0.6-0.1c-0.8-0.1-1.4-1-1.1-1.8L115.9,157.5z M98.9,127.6l-0.1-0.3c-0.2-0.4,0.1-0.8,0.5-0.9l0.3-0.1l0.2-0.3
	c0.3-0.3,0.8-0.3,1.1,0l0.2,0.3l0.3,0.1c0.4,0.1,0.7,0.5,0.5,0.9l-0.1,0.3l0.1,0.3c0.2,0.4-0.1,0.8-0.5,0.9l-0.3,0.1l-0.2,0.3
	c-0.3,0.3-0.8,0.3-1.1,0l-0.2-0.3l-0.3-0.1c-0.4-0.1-0.7-0.5-0.5-0.9L98.9,127.6z"/>
<path class="st14" d="M144.7,49.3l-0.1-0.3c-0.2-0.4,0.1-0.8,0.5-0.9l0.3-0.1l0.2-0.3c0.3-0.3,0.8-0.3,1.1,0l0.2,0.3l0.3,0.1
	c0.4,0.1,0.7,0.5,0.5,0.9l-0.1,0.3l0.1,0.3c0.2,0.4-0.1,0.8-0.5,0.9l-0.3,0.1l-0.2,0.3c-0.3,0.3-0.8,0.3-1.1,0l-0.2-0.3l-0.3-0.1
	c-0.4-0.1-0.7-0.5-0.5-0.9L144.7,49.3z"/>
<path class="st17" d="M111.9,165.6l-0.1-0.3c-0.2-0.4,0.1-0.8,0.5-0.9l0.3-0.1l0.2-0.3c0.3-0.3,0.8-0.3,1.1,0l0.2,0.3l0.3,0.1
	c0.4,0.1,0.7,0.5,0.5,0.9l-0.1,0.3l0.1,0.3c0.2,0.4-0.1,0.8-0.5,0.9l-0.3,0.1l-0.2,0.3c-0.3,0.3-0.8,0.3-1.1,0l-0.2-0.3l-0.3-0.1
	c-0.4-0.1-0.7-0.5-0.5-0.9L111.9,165.6z M115.3,100.4l-0.1-0.3c-0.2-0.4,0.1-0.8,0.5-0.9l0.3-0.1l0.2-0.3c0.3-0.3,0.8-0.3,1.1,0
	l0.2,0.3l0.3,0.1c0.4,0.1,0.7,0.5,0.5,0.9l-0.1,0.3l0.1,0.3c0.2,0.4-0.1,0.8-0.5,0.9l-0.3,0.1l-0.2,0.3c-0.3,0.3-0.8,0.3-1.1,0
	l-0.2-0.3l-0.3-0.1c-0.4-0.1-0.7-0.5-0.5-0.9L115.3,100.4z M157.5,119.2l-0.1-0.3c-0.2-0.4,0.1-0.8,0.5-0.9l0.3-0.1l0.2-0.3
	c0.3-0.3,0.8-0.3,1.1,0l0.2,0.3l0.3,0.1c0.4,0.1,0.7,0.5,0.5,0.9l-0.1,0.3l0.1,0.3c0.2,0.4-0.1,0.8-0.5,0.9l-0.3,0.1l-0.2,0.3
	c-0.3,0.3-0.8,0.3-1.1,0l-0.2-0.3l-0.3-0.1c-0.4-0.1-0.7-0.5-0.5-0.9L157.5,119.2z"/>
<path class="st18" d="M84.3,66.1l-0.1-0.3c-0.2-0.4,0.1-0.8,0.5-0.9l0.3-0.1l0.2-0.3c0.3-0.3,0.8-0.3,1.1,0l0.2,0.3l0.3,0.1
	c0.4,0.1,0.7,0.5,0.5,0.9l-0.1,0.3l0.1,0.3c0.2,0.4-0.1,0.8-0.5,0.9l-0.3,0.1l-0.2,0.3c-0.3,0.3-0.8,0.3-1.1,0L85,67.4l-0.3-0.1
	c-0.4-0.1-0.7-0.5-0.5-0.9L84.3,66.1z"/>
<path class="st19" d="M158.4,114c2.3-4.9,2.3-10.2,0-14.7v-0.1c-2.4-4.4-6.7-7.4-12-8.1c-0.4-0.1-0.8,0.1-1.2,0.3
	c-0.3,0.3-0.5,0.6-0.6,1c-0.1,0.8,0.5,1.5,1.3,1.6c4.3,0.6,7.9,3,9.9,6.7c1.9,3.6,1.9,8,0,12c-0.2,0.4-0.2,0.9,0,1.3
	c0.1,0.2,0.3,0.5,0.6,0.6c0.4,0.2,0.8,0.2,1.2,0.1C157.9,114.7,158.2,114.4,158.4,114z M121.1,106.7c-4.6,2.8-7.5,7.3-7.9,12.4v0.1
	c-0.4,5,1.7,9.8,5.7,13.3c0.3,0.3,0.7,0.4,1.1,0.4s0.8-0.2,1-0.6c0.5-0.6,0.4-1.5-0.2-2c-3.3-2.9-5-6.9-4.7-11s2.7-7.8,6.5-10.1
	c0.4-0.3,0.7-0.7,0.7-1.1c0-0.3,0-0.6-0.2-0.8c-0.2-0.4-0.5-0.6-0.9-0.7C121.9,106.4,121.5,106.5,121.1,106.7z"/>
<path class="st16" d="M129,169.7c-0.7,0.9-1.4,1.6-2.2,2.2c-1.9,0.2-3.7,0.3-5.5,0.4c-2.3,0.2-4.5,0.3-6.5,0.4
	c0.2-0.1,0.5-0.2,0.7-0.2h0.7c4.2,0,7.9-1.7,10.3-4.7c2.6-3.2,3.4-7.5,2.3-11.7v-0.4c0-0.6,0.4-1.2,1-1.4c0.4-0.1,0.8-0.1,1.2,0.1
	c0.4,0.2,0.6,0.5,0.7,0.9C133.1,160.6,132.1,165.8,129,169.7z"/>
<path class="st15" d="M158.9,158.2c0,0.5-0.2,0.9-0.6,1.2c-3.1,2.3-5,5.5-5.5,9c-1,0.2-2,0.4-3,0.5c0.3-4.6,2.7-8.9,6.7-11.9
	c0.3-0.2,0.8-0.3,1.2-0.3c0.4,0.1,0.8,0.3,1,0.6C158.8,157.6,158.9,157.9,158.9,158.2L158.9,158.2z"/>
<path class="st16" d="M116.9,93.2c-5.4-0.3-10.3,1.8-13.5,5.7l-0.1,0.1c-3.1,3.9-4.2,9.1-2.9,14.2c0.1,0.4,0.4,0.8,0.7,1
	c0.4,0.2,0.8,0.2,1.2,0.1c0.8-0.2,1.2-1,1-1.8c-1.1-4.3-0.2-8.5,2.4-11.7s6.6-4.8,11.1-4.6c0.5,0,0.9-0.2,1.2-0.5
	c0.2-0.2,0.3-0.5,0.3-0.8c0-0.4-0.1-0.8-0.3-1.1C117.7,93.5,117.3,93.3,116.9,93.2z"/>
<path class="st0" d="M111.5,83.4c-5.3,1.2-9.4,4.5-11.5,9.1v0.1c-2,4.6-1.6,9.9,1.1,14.5c0.2,0.4,0.6,0.6,1,0.7s0.8,0,1.2-0.2
	c0.7-0.4,0.9-1.3,0.5-2c-2.2-3.8-2.5-8.1-0.9-11.9c1.6-3.7,5.1-6.4,9.4-7.4c0.5-0.1,0.8-0.4,1-0.9c0.1-0.3,0.2-0.5,0.1-0.8
	c-0.1-0.4-0.3-0.8-0.6-1C112.3,83.4,111.9,83.3,111.5,83.4z"/>
<path class="st20" d="M120,136.9c-5.4,5-13.9,4.6-18.9-0.8l-2.5,2.3c6.3,6.9,16.9,7.3,23.8,1s7.3-16.9,1-23.8l-2.5,2.3
	C125.8,123.5,125.4,131.9,120,136.9z"/>
<path class="st1" d="M120,136.9c5.4-5,5.8-13.5,0.8-18.9l-19.7,18.1C106.1,141.5,114.6,141.9,120,136.9z M117.5,122
	c1.4-1.3,3.7-0.7,4.4,1.1v0.1c0.7,1.8-0.8,3.7-2.7,3.6l-6.7-0.3C112.5,126.5,117.5,122,117.5,122z M112.5,127.8l6.7,0.3
	c1.9,0.1,3.2,2.1,2.4,3.9v0.1c-0.8,1.8-3.2,2.1-4.5,0.7C117.1,132.8,112.5,127.8,112.5,127.8z M116.1,133.6c1.3,1.4,0.7,3.7-1.1,4.4
	h-0.1c-1.8,0.6-3.7-0.8-3.6-2.7l0.3-6.7C111.6,128.6,116.1,133.6,116.1,133.6z M106.1,137.6c-1.9-0.9-2.2-3.2-0.8-4.5l4.9-4.5
	l-0.3,6.7C109.9,137.2,107.9,138.4,106.1,137.6z"/>
<path class="st21" d="M121.9,123.1c-0.7-1.9-3-2.5-4.4-1.2l-4.9,4.5l6.7,0.3C121.2,126.8,122.6,124.9,121.9,123.1z M121.5,132
	C121.5,132,121.5,131.9,121.5,132c0.8-1.8-0.4-3.9-2.3-3.9l-6.7-0.3l4.5,4.9C118.3,134.1,120.7,133.8,121.5,132z M114.9,138
	C114.9,138,115,138,114.9,138c1.9-0.7,2.5-3,1.2-4.4l-4.5-4.9l-0.3,6.7C111.2,137.2,113.1,138.7,114.9,138L114.9,138z M110,135.3
	l0.3-6.7l-4.9,4.5c-1.4,1.3-1.1,3.7,0.7,4.5h0.1C107.9,138.4,109.9,137.2,110,135.3z"/>
<path class="st20" d="M128.5,70.6c3.5-4.1,9.7-4.5,13.8-1l1.7-1.9c-5.1-4.4-12.9-3.9-17.4,1.3c-4.4,5.1-3.9,12.9,1.3,17.4l1.7-1.9
	C125.5,80.8,125,74.7,128.5,70.6z"/>
<path class="st1" d="M128.5,70.6c-3.5,4.1-3.1,10.3,1,13.8l12.8-14.8C138.3,66,132.1,66.5,128.5,70.6z M131.6,81.2
	c-0.9,1.1-2.7,0.9-3.3-0.4v-0.1c-0.6-1.3,0.2-2.8,1.6-2.9l4.9-0.4L131.6,81.2z M134.8,76.6l-4.9,0.4c-1.4,0.1-2.5-1.3-2-2.6v-0.1
	c0.5-1.3,2.1-1.8,3.2-0.9L134.8,76.6z M131.7,72.7c-1.1-0.9-0.9-2.7,0.4-3.3h0.1c1.3-0.6,2.8,0.2,2.9,1.6l0.4,4.9L131.7,72.7
	L131.7,72.7z M138.6,68.9c1.4,0.5,1.9,2.1,1,3.2l-3.2,3.7l-0.4-4.9C135.9,69.5,137.2,68.4,138.6,68.9L138.6,68.9z"/>
<path class="st21" d="M128.3,80.8c0.7,1.3,2.4,1.5,3.3,0.5l3.2-3.7l-4.9,0.4C128.6,78,127.7,79.5,128.3,80.8z M127.9,74.3
	c-0.5,1.4,0.6,2.8,2,2.7l4.9-0.4l-3.7-3.2C130,72.5,128.3,72.9,127.9,74.3z M132.2,69.3C132.1,69.4,132.1,69.4,132.2,69.3
	c-1.3,0.7-1.5,2.4-0.5,3.3l3.7,3.2L135,71C134.9,69.6,133.4,68.7,132.2,69.3z M136,70.9l0.4,4.9l3.2-3.7c0.9-1.1,0.5-2.8-0.9-3.2
	h-0.1C137.2,68.4,135.9,69.5,136,70.9L136,70.9z"/>
<path class="st22" d="M99.7,104.2l-0.3-0.6c-0.2-0.4-0.5-0.7-0.9-0.9l-0.6-0.3c-1.7-0.7-2.8-2.3-2.8-4.1c0-1.1,0.4-2.3,1.2-3.1
	l0.2-0.2c2.1-2.2,5.4-2.8,8.2-1.6c1.7,0.7,3,2,3.8,3.7c1.3,2.8,0.8,6.1-1.3,8.3l-0.2,0.2c-0.8,0.8-1.9,1.3-3,1.3
	C102,106.9,100.4,105.9,99.7,104.2L99.7,104.2z"/>
<path class="st11" d="M99.5,103.7C99.5,103.8,99.5,103.8,99.5,103.7l-0.1-0.2c-0.2-0.4-0.5-0.7-0.9-0.9l-0.2-0.1
	c0.3-0.3,0.9-0.3,1.2,0C99.8,102.8,99.9,103.4,99.5,103.7z"/>
<path class="st22" d="M159.6,136.2l0.4,0.4c0.2,0.3,0.6,0.4,0.9,0.4h0.6c1.4,0.1,2.7,1,3.2,2.4c0.3,0.9,0.3,1.8-0.1,2.6l-0.1,0.2
	c-1,2.2-3.4,3.5-5.8,3.3c-1.4-0.1-2.8-0.8-3.8-1.8c-1.7-1.8-2.1-4.4-1.1-6.6l0.1-0.2c0.4-0.8,1.1-1.5,2-1.8
	C157.1,134.7,158.7,135.1,159.6,136.2L159.6,136.2z"/>
<path class="st11" d="M159.8,136.5C159.8,136.5,159.8,136.4,159.8,136.5l0.2,0.1c0.2,0.3,0.6,0.4,0.9,0.4h0.2
	c-0.2,0.3-0.6,0.5-0.9,0.3C159.8,137.2,159.7,136.8,159.8,136.5z"/>
<path class="st22" d="M119.8,55h-0.6c-0.4,0-0.7,0.2-0.9,0.5l-0.4,0.4c-0.9,1.1-2.5,1.5-3.8,1c-0.9-0.3-1.6-0.9-2-1.7L112,55
	c-1.1-2.2-0.7-4.8,1-6.6c1-1,2.3-1.7,3.8-1.8c2.4-0.2,4.8,1,5.8,3.2l0.1,0.2c0.4,0.8,0.5,1.8,0.2,2.6C122.5,54,121.3,55,119.8,55z"
	/>
<path class="st11" d="M119.4,55C119.5,55,119.5,55,119.4,55l-0.2,0.1c-0.4,0-0.7,0.2-0.9,0.5l-0.1,0.1c-0.2-0.3,0-0.8,0.3-0.9
	C118.9,54.5,119.3,54.7,119.4,55z"/>
<path class="st12" d="M123.3,86.5l-1.8-1.8c-0.2-0.2,0-0.6,0.3-0.5l2.5,0.7c1.9,0.6,3.9,0.8,5.8,0.6c5.2-0.5,9.9,2.9,10.9,8l0.6,2.6
	l-2.6,0.8c-5,1.5-10.3-0.9-12.3-5.6C125.9,89.5,124.7,87.8,123.3,86.5z"/>
<path class="st13" d="M141.4,96.5l-9.2-5.9l9.7,5.2c0.2,0.1,0.3,0.4,0.2,0.6S141.7,96.7,141.4,96.5z"/>
<path class="st1" d="M411,96.7l46.9-10.3c0,0,0,64.3,0,66S408.7,166.6,411,166"/>
</svg>
