<?xml version="1.0" encoding="utf-8"?>
<!-- Generator: Adobe Illustrator 25.4.1, SVG Export Plug-In . SVG Version: 6.00 Build 0)  -->
<svg version="1.1" id="Layer_1" xmlns="http://www.w3.org/2000/svg" xmlns:xlink="http://www.w3.org/1999/xlink" x="0px" y="0px"
	 viewBox="0 0 1366 768" style="enable-background:new 0 0 1366 768;" xml:space="preserve">
<style type="text/css">
	.st0{fill:#ADDEC9;}
	.st1{fill:#FFFFFF;}
	.st2{fill:#556268;}
	.st3{fill:#394145;}
	.st4{fill:#142328;}
	.st5{fill:#231F20;}
	.st6{fill:#C14F29;}
	.st7{fill:#8E3928;}
	.st8{fill:#A1BDCA;}
	.st9{opacity:0.57;fill:#FA9269;enable-background:new    ;}
	.st10{opacity:0.81;fill:#FA9269;enable-background:new    ;}
	.st11{fill:#662A16;}
	.st12{fill:#06C167;}
	.st13{fill:#0F462D;}
	.st14{fill:#66D19E;}
	.st15{fill:#156A41;}
	.st16{fill:#05A357;}
	.st17{fill:#FFC043;}
	.st18{fill:#FF6937;}
	.st19{fill:#066336;}
	.st20{fill:#F9A723;}
	.st21{fill:#FFC552;}
	.st22{fill:#B18977;}
</style>
<path class="st0" d="M0,0h1366v768H0V0z"/>
<path class="st1" d="M880.3,0c-38.5,50.1-91,87.5-147.1,108.5c-77.3,29.1-161.7,29.1-241.3,10.7c-29.8-7-62.6-18.7-93.4-9.7
	c-33.1,9.3-50.4,46.7-39.7,83.5c14,48.4,74,77.5,109.8,102.2c12.2,8.3,24.8,17.4,34,29.7c7.8,10,12.8,22.4,16.4,35.1
	c11.3,43.1,0.6,91.2-23.9,126.9c-24.5,35.7-60.9,59.1-99.6,70.8l-146.5,17c-7.2-1.7-9.2-11.7-8.9-19.7c0.6-27.4,11-53.1,21.8-77.8
	c10.7-24.7,22.1-49.4,25.1-76.8c6.3-55.8-33.4-95.2-82-81.5c-37.9,10.7-51.6,48.4-51.3,88.5c0.3,43.1-16.4,96.5-42.4,128.6
	c-23.6,29.4-57.6,43.1-89.2,57.8C14.9,597,7.5,600.4,0,603V0H880.3z"/>
<path class="st0" d="M488.3,363.6c-12.2-3.7-24.8-1-34,7.3l-0.3,0.3c-9.2,8.3-14,21-13.4,35.4c0,1,0.6,2,1.2,3c0.6,0.7,1.8,1,2.7,1
	c1.8-0.3,3.3-2,3.3-4c-0.6-11.7,3.6-22,11-29.1c7.5-6.7,17.6-9,27.7-6c1.2,0.3,2.4,0,3-0.7c0.6-0.3,0.9-1,1.2-2c0.3-1,0.3-2-0.3-3
	C490.1,364.6,489.5,364,488.3,363.6L488.3,363.6z"/>
<path class="st2" d="M651.2,514.2l34.9-7l6.9,43.4l-34.9,7L651.2,514.2z"/>
<path class="st3" d="M381,664.8c-29.8,3.3-60,3.3-86.2-10c-25.7-12.7-43.9-38.7-48.6-69.8l-1.8-11l51.6-11l4.5,22.4
	c4.8,30.7,23,57.1,48.6,69.8C359.2,659.8,369.9,663.2,381,664.8L381,664.8z"/>
<path class="st4" d="M643.2,586c-35.2,38.1-91.6,44.7-137.2,57.8c-21.2,6-42.7,10.4-64.4,12.7c-19.1,2-39.7,5.7-60.3,8
	c-11-1.7-21.8-4.7-31.9-10c-25.7-12.7-43.9-38.7-48.6-69.8l-4.5-22.4l158.4-34.4l211.2-37.7l1.8,11
	C672.1,532.9,663.2,564.3,643.2,586z"/>
<path class="st5" d="M1040.2,427.4l2.4-61.8l94.6,86.5c0,0-40.3,124.5-41.8,128.2c-0.6,1.7-11.9-16-24.5-35.7
	C1049.5,510.2,1038.7,469.1,1040.2,427.4z"/>
<path class="st6" d="M1099.3,487.2l-123.5,3c-3.3,0-6.3,1.7-8.7,4l-8.7,9c-10.1,10.7-18.5,19.4-31.3,26c-1.5,0.7-3,1.7-4.5,2.3
	c-17.6,8-36.1,2.7-54.9-1.7c-8.4-2-8.9-15-16.7-17.7c3-10-0.9-3.7,2.1-13.7l4.5-16.4l11.6-41.1l58.8-65.4l13.7-7.3
	c4.8-2.7,10.1-3.3,15.2-2l24.2,5.3l75.2-2L1099.3,487.2L1099.3,487.2z"/>
<path class="st6" d="M858,481.5l-4.5,16.4c-3,10-17.6,17-20.6,27.4c11.3-11.7,20.9,12.4,28.9,9.7c10.1-3.7,18.8,7,26.3,6.7
	l19.4-76.5L858,481.5L858,481.5z"/>
<path class="st7" d="M993.7,464.8l-2.1-23.4c-0.6-5.3-5.1-9.3-9.8-8.7l-45.9,7.3l-3,16l-25.7,8.7l-17.6,73.8
	c11.3-0.3,1.8-4.7,12.5-9.3c1.2-0.7,3-3.7,3.9-4.7c3-3.7,6-7,8.9-10.4c5.7-6.7,10.1-14.7,15.8-21c8.7-9.7,18.8-9.3,29.8-10.4l21.5-2
	C989.5,480.8,994.9,473.2,993.7,464.8L993.7,464.8z"/>
<path class="st4" d="M682.9,512.6l5.4,33.7c1.2,7.3,8.7,10.7,14,6l6.3-5.3c4.8-4,10.1-7.7,15.5-10.7l81.4-43.1
	c19.7-10.4,40.9-16.4,62.6-17.4l103.2-4.7c7.5-0.3,12.8-7.7,11.3-16l-3.3-20.7c-1.2-6.7-6.6-11.7-12.8-11l-130.4,10
	c-7.5,0.7-14.9,2.7-21.8,6l-126.5,62.4C684.3,503.5,682.3,507.9,682.9,512.6L682.9,512.6z"/>
<path class="st1" d="M1226.1,322.9v231.4L1095.4,580l-3-72.1c-0.9-18.7-4.8-36.7-11.9-53.8l-38.2-88.8c26.6-2,44.2-3.7,70.7-7
	C1125,357,1177.8,339.3,1226.1,322.9L1226.1,322.9z"/>
<ellipse transform="matrix(0.9807 -0.1955 0.1955 0.9807 -94.5748 99.0147)" class="st8" cx="454.3" cy="528.6" rx="214.7" ry="46.2"/>
<path class="st4" d="M644.4,498.2c-23,16.7-86.2,44.1-184.7,63.4c-37,7.3-69.8,11.7-97.8,14c-45.9,3.7-78.5,1.7-95.2-3
	c-5.7-1.3-7.2-10-2.1-13.7c23-16.7,86.2-44.1,184.7-63.4c14.6-3,28.6-5.3,42.1-7.3c75.8-11.7,128-9.7,150.9-3.7
	C647.9,485.8,649.1,494.5,644.4,498.2L644.4,498.2z"/>
<path class="st6" d="M968.9,423.1c-14.6,0-27.4-1.7-40.6,6.3c-11.6,7-22.1,16.7-34.6,21c-1.8,0.7-3.9,1.3-6,1.7
	c-2.4,0.3-4.8,0.7-7.2,0.7c-8.4,0.3-16.4-1-24.5-2.7c-2.4-0.3-5.1-1-7.5-1.3l-16.4-2.3L822,481.6l-2.1,7c-0.9,3.3-2.7,6-4.8,8
	c-2.1,2.3-5.1,3.7-7.8,4.3c-3.3,0.7-6.3,0-8.9-1c-6.3-3-10.7-10-10.1-18.4l2.4-35.1c0.3-5.7,2.4-11,6-15.4l32.5-40.4
	c8.1-10,19.7-15.7,31.6-15.7h67.1L968.9,423.1L968.9,423.1z"/>
<path class="st9" d="M808.1,464.5l-11-1c-2.7-0.3-5.4,2-5.4,5.3l-0.9,10.7c-0.3,5.7,3.3,10.4,8.4,11l3.3,0.3
	c5.1,0.3,9.2-3.7,9.8-9.3l0.9-10.7C812.9,467.5,810.8,464.5,808.1,464.5L808.1,464.5z"/>
<path class="st6" d="M801.3,479.5c-7.8-6.7-18.8-5.3-24.8,3.3l-14.3,21c-6,8.7-4.8,21,3,27.7s18.8,5.3,24.8-3.3l14.3-21
	C810.2,498.5,809,486.2,801.3,479.5L801.3,479.5z"/>
<path class="st10" d="M778.3,502.9l8.7,6.7c2.1,1.7,5.4,1,6.9-1.3l5.1-8.3c2.7-4.3,1.5-10.4-2.4-13.4l-2.7-2
	c-3.9-3-9.2-1.7-11.9,2.7l-5.1,8.3C775.6,497.9,776.2,501.2,778.3,502.9z"/>
<ellipse class="st2" cx="707" cy="519.2" rx="9.2" ry="10.4"/>
<ellipse class="st5" cx="1122" cy="536.9" rx="9.8" ry="11"/>
<path class="st7" d="M855.6,450.1c-2.4-0.3-5.1-1-7.5-1.3l-16.4-2.3l-10.1,35.1l-9.5-0.3l9.2-35.7c2.1-8.3,9.2-14.4,17-14.4h1.5
	C848.1,432.1,855,438.4,855.6,450.1z"/>
<path class="st11" d="M848.4,480.2l6-20.4l-5.1,20.4H848.4z"/>
<path class="st11" d="M848.4,480.2l6-20.4l-5.1,20.4H848.4z"/>
<path class="st7" d="M893.8,450.4c-1.8,0.7-3.9,1.3-6,1.7c-2.4,0.3-4.8,0.7-7.2,0.7c-7.8-0.7-15.5-2.3-23-3l1.5-5
	c2.4-8,9.2-13.7,16.7-13.7h2.1C890.2,433.1,892.3,442.4,893.8,450.4z"/>
<path class="st6" d="M832,529.3c1.2-2,1.8-4,3-5.7c0.3-0.7,1.2-2,1.8-2c1.5-0.3,1.8,2,2.1,3c0.6,1.7,1.2,3,2.1,4.3
	c2.1,3,4.8,5.3,8.1,6.7c4.2,1.7,8.7,1.7,12.8-0.3c2.1-1,3.9-2.3,5.7-4c0.9-1,1.5-2.3,2.7-3.3c-0.6,0.7-1.5,1.3-2.1,2
	c1.2-1,2.7-3,3.9-2s1.2,3,1.8,4.3c1.8,4,5.1,7,8.7,8.7c8.4,3.3,17.6-1.3,20.6-10.7l16.7-52.1c3-9.3-1.2-19.7-9.5-23
	c-7.8-3-16.1,0.7-19.7,8.3c1.2-9-3.3-18.4-11.3-21.7c-9.2-3.7-19.4,1.7-22.7,11.7l-3.9,11.7c1.2-9-3.3-18.4-11.3-21.7
	c-9.2-3.7-19.4,1.7-22.7,11.7L800.6,512c-3.3,10.4,1.5,21.7,10.4,25.4c5.1,2,10.7,1.3,15.2-1.7C828.7,533.9,830.5,531.6,832,529.3
	L832,529.3z"/>
<path class="st10" d="M864.5,472.2l10.1,3.3c2.7,0.7,5.4-1,6-3.7l2.4-9.7c1.2-5-1.2-10.4-6-12l-3-1c-4.5-1.3-9.2,1.3-10.7,6.7
	l-2.4,9.7C860.6,468.1,862.1,471.2,864.5,472.2L864.5,472.2z M897,482.5l9.2,3c2.4,0.7,4.8-0.7,5.4-3.3l2.4-8.7
	c1.2-4.7-1.2-9.7-5.4-11l-2.7-1c-4.2-1.3-8.7,1.3-9.8,6l-2.4,8.7C893.5,479.2,894.7,481.8,897,482.5L897,482.5z M826.9,473.8
	l10.1,3.3c2.7,0.7,5.4-1,6-3.7l2.4-9.7c1.2-5-1.2-10.4-6-12l-3-1c-4.5-1.3-9.2,1.3-10.7,6.7l-2.4,9.7
	C822.8,470.1,824.3,473.2,826.9,473.8L826.9,473.8z"/>
<path class="st2" d="M491.3,488.2c-51.9,60.1-94.3,76.5-129.5,87.5c-45.9,3.7-78.5,1.7-95.2-3c-5.7-1.3-7.2-10-2.1-13.7
	c23-16.7,86.2-44.1,184.7-63.4C463.9,492.9,477.9,490.2,491.3,488.2L491.3,488.2z"/>
<path class="st12" d="M447.5,434.8l3.6,3.7c0.6,0.3,0,1.3-0.6,1l-4.8-1.3c-3.6-1-7.5-1.3-11-1c-9.8,1.3-18.8-5.7-20.9-16l-1.2-5.7
	l4.8-1.7c9.2-3.3,19.4,1.3,23.6,11C442.4,428.7,444.5,432.1,447.5,434.8L447.5,434.8z"/>
<path class="st13" d="M412.6,414.7l17.6,12l-18.5-10.4c-0.3-0.3-0.6-0.7-0.3-1.3C411.7,414.7,412.3,414.7,412.6,414.7L412.6,414.7z"
	/>
<path class="st12" d="M525.6,523.6l4.5,2.3c0.6,0.3,0.3,1.3-0.3,1.3H525c-3.6,0-7.5,1-10.7,2.7c-8.9,4.3-19.4,0.7-24.2-8.7l-2.7-5
	l4.2-3.3c8.1-6.3,18.8-5,25.4,3C519.1,519.2,522.1,521.6,525.6,523.6L525.6,523.6z"/>
<path class="st13" d="M487.2,515.2l20,5.7l-20.3-4c-0.6,0-0.9-0.7-0.6-1C486.3,515.6,486.6,515.2,487.2,515.2z"/>
<path class="st12" d="M434.9,465.8l4.5-7c0.6-1,1.8-0.3,1.8,0.7l-0.9,8.3c-0.9,6.3-0.3,13,1.2,19.4c3.9,16.7-3.9,34.1-18.2,40.4
	l-7.5,3.3l-3.6-8.3c-6.9-15.7-2.1-34.4,10.7-43.7C427.2,475.8,431.4,471.2,434.9,465.8z"/>
<path class="st13" d="M414.1,530.9l13.1-33.7l-10.4,34.7c-0.3,0.7-0.9,1.3-1.8,1C414.1,532.6,413.8,531.6,414.1,530.9L414.1,530.9z"
	/>
<path class="st14" d="M460.6,247.8h11v-5.7h-11V247.8z"/>
<path class="st14" d="M460.6,243.1h11v-6h-11V243.1z M482.1,216l12.8-10.4l-1.5-2L480.6,214L482.1,216z"/>
<path class="st14" d="M480.9,214.4l12.8-10.4l-1.5-2l-12.8,10.4L480.9,214.4z"/>
<path class="st15" d="M491.3,419.1l7.2,9.3l3.9-3.7l-7.2-9.3L491.3,419.1z"/>
<path class="st16" d="M494.6,415.7l7.2,9.3l3.9-3.7l-7.2-9.3L494.6,415.7z"/>
<path class="st0" d="M381,462.1l7.2,9.3l3.9-3.7l-7.2-9.3L381,462.1z"/>
<path class="st0" d="M384.2,459.1l7.2,9.3l3.9-3.7l-7.2-9.3L384.2,459.1z"/>
<path class="st15" d="M312.3,508.5l-5.1,11l4.5,2.7l5.1-11L312.3,508.5z"/>
<path class="st16" d="M316.2,510.9l-5.1,11l4.5,2.7l5.1-11L316.2,510.9z"/>
<path class="st17" d="M318.3,242.4l-0.6-2c-0.9-2.7,0.6-5.7,3.3-6l1.8-0.3l1.2-1.7c1.5-2.3,4.8-2.3,6.3,0l1.2,1.7l1.8,0.3
	c2.4,0.3,4.2,3.3,3.3,6l-0.6,2l0.6,2c0.9,2.7-0.6,5.7-3.3,6l-1.8,0.3l-1.2,1.7c-1.5,2.3-4.8,2.3-6.3,0l-1.2-1.7l-1.8-0.3
	c-2.4-0.3-4.2-3.3-3.3-6L318.3,242.4z"/>
<path class="st18" d="M413.5,357l-0.6-2c-0.9-2.7,0.6-5.7,3.3-6l1.8-0.3l1.2-1.7c1.5-2.3,4.8-2.3,6.3,0l1.2,1.7l1.8,0.3
	c2.4,0.3,4.2,3.3,3.3,6l-0.6,2l0.6,2c0.9,2.7-0.6,5.7-3.3,6l-1.8,0.3l-1.2,1.7c-1.5,2.3-4.8,2.3-6.3,0l-1.2-1.7l-1.8-0.3
	c-2.4-0.3-4.2-3.3-3.3-6L413.5,357z M345.8,525.9l-0.6-2c-0.9-2.7,0.6-5.7,3.3-6l1.8-0.3l1.2-1.7c1.5-2.3,4.8-2.3,6.3,0l1.2,1.7
	l1.8,0.3c2.4,0.3,4.2,3.3,3.3,6l-0.6,2l0.6,2c0.9,2.7-0.6,5.7-3.3,6l-1.8,0.3l-1.2,1.7c-1.5,2.3-4.8,2.3-6.3,0l-1.2-1.7l-1.8-0.3
	c-2.4-0.3-4.2-3.3-3.3-6L345.8,525.9z M295,426.1l-0.3-1c-0.6-1.3,0.3-2.7,1.5-3l0.9-0.3l0.6-1c0.9-1,2.4-1,3.3,0l0.6,1l0.9,0.3
	c1.2,0.3,2.1,1.7,1.5,3l-0.3,1l0.3,1c0.6,1.3-0.3,2.7-1.5,3l-0.9,0.3l-0.6,1c-0.9,1-2.4,1-3.3,0l-0.6-1l-0.9-0.3
	c-1.2-0.3-2.1-1.7-1.5-3L295,426.1z"/>
<path class="st14" d="M431.7,164.6l-0.3-1c-0.6-1.3,0.3-2.7,1.5-3l0.9-0.3l0.6-1c0.9-1,2.4-1,3.3,0l0.6,1l0.9,0.3
	c1.2,0.3,2.1,1.7,1.5,3l-0.3,1l0.3,1c0.6,1.3-0.3,2.7-1.5,3l-0.9,0.3l-0.6,1c-0.9,1-2.4,1-3.3,0l-0.6-1l-0.9-0.3
	c-1.2-0.3-2.1-1.7-1.5-3L431.7,164.6z"/>
<path class="st17" d="M333.8,553l-0.3-1c-0.6-1.3,0.3-2.7,1.5-3l0.9-0.3l0.6-1c0.9-1,2.4-1,3.3,0l0.6,1l0.9,0.3
	c1.2,0.3,2.1,1.7,1.5,3l-0.3,1l0.3,1c0.6,1.3-0.3,2.7-1.5,3l-0.9,0.3l-0.6,1c-0.9,1-2.4,1-3.3,0l-0.6-1L335,557
	c-1.2-0.3-2.1-1.7-1.5-3L333.8,553z M344,335.2l-0.3-1c-0.6-1.3,0.3-2.7,1.5-3l0.9-0.3l0.6-1c0.9-1,2.4-1,3.3,0l0.6,1l0.9,0.3
	c1.2,0.3,2.1,1.7,1.5,3l-0.3,1l0.3,1c0.6,1.3-0.3,2.7-1.5,3l-0.9,0.3l-0.6,1c-0.9,1-2.4,1-3.3,0l-0.6-1l-0.9-0.3
	c-1.2-0.3-2.1-1.7-1.5-3L344,335.2z M469.9,398l-0.3-1c-0.6-1.3,0.3-2.7,1.5-3l0.9-0.3l0.6-1c0.9-1,2.4-1,3.3,0l0.6,1l0.9,0.3
	c1.2,0.3,2.1,1.7,1.5,3l-0.3,1l0.3,1c0.6,1.3-0.3,2.7-1.5,3l-0.9,0.3l-0.6,1c-0.9,1-2.4,1-3.3,0l-0.6-1l-1-0.3
	c-1.2-0.3-2.1-1.7-1.5-3L469.9,398z"/>
<path class="st18" d="M251.5,220.7l-0.3-1c-0.6-1.3,0.3-2.7,1.5-3l0.9-0.3l0.6-1c0.9-1,2.4-1,3.3,0l0.6,1l0.9,0.3
	c1.2,0.3,2.1,1.7,1.5,3l-0.3,1l0.3,1c0.6,1.3-0.3,2.7-1.5,3l-0.9,0.3l-0.6,1c-0.9,1-2.4,1-3.3,0l-0.6-1l-0.9-0.3
	c-1.2-0.3-2.1-1.7-1.5-3L251.5,220.7z"/>
<path class="st19" d="M472.5,380.7c6.9-16.4,6.9-34.1,0-49.1v-0.3c-7.2-14.7-20-24.7-35.8-27c-1.2-0.3-2.4,0.3-3.6,1
	c-0.9,1-1.5,2-1.8,3.3c-0.3,2.7,1.5,5,3.9,5.3c12.8,2,23.6,10,29.5,22.4c5.7,12,5.7,26.7,0,40.1c-0.6,1.3-0.6,3,0,4.3
	c0.3,0.7,0.9,1.7,1.8,2c1.2,0.7,2.4,0.7,3.6,0.3C471,383,471.9,382,472.5,380.7z M361.3,356.3c-13.7,9.3-22.4,24.4-23.6,41.4v0.3
	c-1.2,16.7,5.1,32.7,17,44.4c0.9,1,2.1,1.3,3.3,1.3c1.2,0,2.4-0.7,3-2c1.5-2,1.2-5-0.6-6.7c-9.8-9.7-14.9-23-14-36.7
	s8.1-26,19.4-33.7c1.2-1,2.1-2.3,2.1-3.7c0-1,0-2-0.6-2.7c-0.6-1.3-1.5-2-2.7-2.3C363.7,355.3,362.5,355.6,361.3,356.3z"/>
<path class="st16" d="M384.8,566.7c-2.1,3-4.2,5.3-6.6,7.3c-5.7,0.7-11,1-16.4,1.3c-6.9,0.7-13.4,1-19.4,1.3
	c0.6-0.3,1.5-0.7,2.1-0.7h2.1c12.5,0,23.6-5.7,30.7-15.7c7.8-10.7,10.1-25,6.9-39.1v-1.3c0-2,1.2-4,3-4.7c1.2-0.3,2.4-0.3,3.6,0.3
	c1.2,0.7,1.8,1.7,2.1,3C397.1,536.3,394.1,553.6,384.8,566.7z"/>
<path class="st15" d="M474,528.3c0,1.7-0.6,3-1.8,4c-9.2,7.7-14.9,18.4-16.4,30.1c-3,0.7-6,1.3-8.9,1.7c0.9-15.4,8.1-29.7,20-39.7
	c0.9-0.7,2.4-1,3.6-1c1.2,0.3,2.4,1,3,2C473.7,526.2,474,527.2,474,528.3L474,528.3z"/>
<path class="st16" d="M348.7,311.2c-16.1-1-30.7,6-40.3,19l-0.3,0.3c-9.2,13-12.5,30.4-8.7,47.4c0.3,1.3,1.2,2.7,2.1,3.3
	c1.2,0.7,2.4,0.7,3.6,0.3c2.4-0.7,3.6-3.3,3-6c-3.3-14.4-0.6-28.4,7.2-39.1c7.8-10.7,19.7-16,33.1-15.4c1.5,0,2.7-0.7,3.6-1.7
	c0.6-0.7,0.9-1.7,0.9-2.7c0-1.3-0.3-2.7-0.9-3.7C351.1,312.2,349.9,311.5,348.7,311.2z"/>
<path class="st0" d="M332.6,278.5c-15.8,4-28,15-34.3,30.4v0.3c-6,15.4-4.8,33.1,3.3,48.4c0.6,1.3,1.8,2,3,2.3s2.4,0,3.6-0.7
	c2.1-1.3,2.7-4.3,1.5-6.7c-6.6-12.7-7.5-27-2.7-39.7c4.8-12.4,15.2-21.4,28-24.7c1.5-0.3,2.4-1.3,3-3c0.3-1,0.6-1.7,0.3-2.7
	c-0.3-1.3-0.9-2.7-1.8-3.3C335,278.5,333.8,278.1,332.6,278.5z"/>
<path class="st20" d="M358,457.1c-16.1,16.7-41.5,15.4-56.4-2.7l-7.5,7.7c18.8,23,50.4,24.4,71,3.3s21.8-56.4,3-79.5l-7.5,7.7
	C375.3,412.4,374.1,440.4,358,457.1z"/>
<path class="st1" d="M358,457.1c16.1-16.7,17.3-45.1,2.4-63.1l-58.8,60.4C316.5,472.5,341.9,473.8,358,457.1z M350.5,407.4
	c4.2-4.3,11-2.3,13.1,3.7v0.3c2.1,6-2.4,12.4-8.1,12l-20-1C335.6,422.4,350.5,407.4,350.5,407.4z M335.6,426.7l20,1
	c5.7,0.3,9.5,7,7.2,13v0.3c-2.4,6-9.5,7-13.4,2.3L335.6,426.7z M346.3,446.1c3.9,4.7,2.1,12.4-3.3,14.7h-0.3c-5.4,2-11-2.7-10.7-9
	l0.9-22.4C332.9,429.4,346.3,446.1,346.3,446.1z M316.5,459.5c-5.7-3-6.6-10.7-2.4-15l14.6-15l-0.9,22.4
	C327.9,458.1,321.9,462.1,316.5,459.5z"/>
<path class="st21" d="M363.7,411c-2.1-6.3-8.9-8.3-13.1-4L336,422l20,1C361.6,423.4,365.7,417.1,363.7,411z M362.5,440.8
	C362.5,440.8,362.5,440.4,362.5,440.8c2.4-6-1.2-13-6.9-13l-20-1l13.4,16.4C352.9,447.8,360.1,446.8,362.5,440.8z M342.8,460.8
	C342.8,460.8,343.1,460.8,342.8,460.8c5.7-2.3,7.5-10,3.6-14.7L333,429.7l-0.9,22.4C331.7,458.1,337.4,463.1,342.8,460.8
	L342.8,460.8z M328.2,451.8l0.9-22.4l-14.6,15c-4.2,4.3-3.3,12.4,2.1,15h0.3C321.9,462.1,327.9,458.1,328.2,451.8z"/>
<path class="st20" d="M383.3,235.7c10.4-13.7,28.9-15,41.2-3.3l5.1-6.3c-15.2-14.7-38.5-13-51.9,4.3c-13.1,17-11.6,43.1,3.9,58.1
	l5.1-6.3C374.4,269.8,372.9,249.4,383.3,235.7z"/>
<path class="st1" d="M383.3,235.7c-10.4,13.7-9.2,34.4,3,46.1l38.2-49.4C412.6,220.4,394.1,222.1,383.3,235.7z M392.6,271.1
	c-2.7,3.7-8.1,3-9.8-1.3v-0.3c-1.8-4.3,0.6-9.3,4.8-9.7l14.6-1.3L392.6,271.1z M402.1,255.8l-14.6,1.3c-4.2,0.3-7.5-4.3-6-8.7v-0.3
	c1.5-4.3,6.3-6,9.5-3L402.1,255.8z M392.9,242.8c-3.3-3-2.7-9,1.2-11h0.3c3.9-2,8.4,0.7,8.7,5.3l1.2,16.4L392.9,242.8L392.9,242.8z
	 M413.5,230.1c4.2,1.7,5.7,7,3,10.7l-9.5,12.4l-1.2-16.4C405.4,232.1,409.3,228.4,413.5,230.1L413.5,230.1z"/>
<path class="st21" d="M382.7,269.8c2.1,4.3,7.2,5,9.8,1.7l9.5-12.4l-14.6,1.3C383.6,260.5,381,265.5,382.7,269.8z M381.5,248.1
	c-1.5,4.7,1.8,9.3,6,9l14.6-1.3l-11-10.7C387.8,242.1,382.7,243.4,381.5,248.1z M394.4,231.4C394.1,231.7,394.1,231.7,394.4,231.4
	c-3.9,2.3-4.5,8-1.5,11l11,10.7l-1.2-16C402.4,232.4,398,229.4,394.4,231.4z M405.7,236.7l1.2,16.4l9.5-12.4
	c2.7-3.7,1.5-9.3-2.7-10.7h-0.3C409.3,228.4,405.4,232.1,405.7,236.7L405.7,236.7z"/>
<path class="st22" d="M297.4,347.9l-0.9-2c-0.6-1.3-1.5-2.3-2.7-3l-1.8-1c-5.1-2.3-8.4-7.7-8.4-13.7c0-3.7,1.2-7.7,3.6-10.4l0.6-0.7
	c6.3-7.3,16.1-9.3,24.5-5.3c5.1,2.3,8.9,6.7,11.3,12.4c3.9,9.3,2.4,20.4-3.9,27.7l-0.6,0.7c-2.4,2.7-5.7,4.3-8.9,4.3
	C304.3,357,299.5,353.6,297.4,347.9L297.4,347.9z"/>
<path class="st11" d="M296.8,346.3C296.8,346.6,296.8,346.6,296.8,346.3l-0.3-0.7c-0.6-1.3-1.5-2.3-2.7-3l-0.6-0.3
	c0.9-1,2.7-1,3.6,0C297.7,343.3,298,345.3,296.8,346.3z"/>
<path class="st22" d="M476.1,454.8l1.2,1.3c0.6,1,1.8,1.3,2.7,1.3h1.8c4.2,0.3,8.1,3.3,9.5,8c0.9,3,0.9,6-0.3,8.7l-0.3,0.7
	c-3,7.3-10.1,11.7-17.3,11c-4.2-0.3-8.4-2.7-11.3-6c-5.1-6-6.3-14.7-3.3-22l0.3-0.7c1.2-2.7,3.3-5,6-6
	C468.7,449.8,473.4,451.1,476.1,454.8L476.1,454.8z"/>
<path class="st11" d="M476.7,455.8C476.7,455.8,476.7,455.5,476.7,455.8l0.6,0.3c0.6,1,1.8,1.3,2.7,1.3h0.6c-0.6,1-1.8,1.7-2.7,1
	C476.7,458.1,476.4,456.8,476.7,455.8z"/>
<path class="st22" d="M357.4,183.7h-1.8c-1.2,0-2.1,0.7-2.7,1.7l-1.2,1.3c-2.7,3.7-7.5,5-11.3,3.3c-2.7-1-4.8-3-6-5.7l-0.3-0.7
	c-3.3-7.3-2.1-16,3-22c3-3.3,6.9-5.7,11.3-6c7.2-0.7,14.3,3.3,17.3,10.7l0.3,0.7c1.2,2.7,1.5,6,0.6,8.7
	C365.4,180.3,361.9,183.7,357.4,183.7z"/>
<path class="st11" d="M356.2,183.7C356.5,183.7,356.5,183.7,356.2,183.7l-0.6,0.3c-1.2,0-2.1,0.7-2.7,1.7l-0.3,0.3
	c-0.6-1,0-2.7,0.9-3C354.7,182,355.9,182.7,356.2,183.7z"/>
<path class="st12" d="M367.8,288.8l-5.4-6c-0.6-0.7,0-2,0.9-1.7l7.5,2.3c5.7,2,11.6,2.7,17.3,2c15.5-1.7,29.5,9.7,32.5,26.7l1.8,8.7
	l-7.8,2.7c-14.9,5-30.7-3-36.7-18.7C375.6,298.9,372,293.2,367.8,288.8z"/>
<path class="st13" d="M421.8,322.2l-27.4-19.7l28.9,17.4c0.6,0.3,0.9,1.3,0.6,2S422.7,322.9,421.8,322.2z"/>
<path class="st1" d="M1226.1,322.9l139.9-34.4c0,0,0,214.7,0,220.4s-146.8,47.4-139.9,45.4"/>
</svg>
